<svg height="58" viewBox="0 0 58 58" width="58"
    xmlns="http://www.w3.org/2000/svg"
    xmlns:xlink="http://www.w3.org/1999/xlink">
    <linearGradient id="a" x1="50%" x2="50%" y1="0%" y2="97.945951%">
        <stop offset="0" stop-color="#d28afd"/>
        <stop offset="1" stop-color="#a687ff"/>
    </linearGradient>
    <g fill="none" fill-rule="evenodd" transform="translate(0 .2)">
        <path d="m26.2095238 0h5.1809524c.1189943.02136252.2390349.03641845.359619.04510476 2.3148566.04307818 4.625781.20930685 6.9229715.49798095 2.5307428.32853334 5.018819.85272381 7.4069333 1.77980953 4.0283429 1.56281905 7.0016 4.2496 8.7826286 8.22186666 1.2598857 2.8086857 1.9132952 5.7752381 2.2345143 8.8118857.2279619 2.1583238.3108571 4.3324953.4601904 6.4993524.0067048.0987429.0280381.1962667.0426667.2944v5.3028571c-.0201047.1074595-.03455.215901-.0432762.3248762-.0609524 2.609981-.2389333 5.2114286-.6296381 7.7952-.3584 2.3728762-.9027047 4.6969905-1.8285714 6.9223619-1.4908953 3.5882667-3.9137524 6.3140572-7.4130286 8.0566858-2.2174476 1.1050666-4.5756952 1.756038-6.9991619 2.1942857-2.7526095.4955428-5.5344762.7076571-8.3273143.7923809-.3230476.0103619-.6454857.0396191-.9685333.0609524h-5.1809524c-.1401905-.0164571-.2797714-.0438857-.4199619-.0475429-2.599619-.0609523-5.1900952-.2334476-7.7628952-.6247619-2.1997715-.3346285-4.3587048-.8289523-6.4390096-1.6414476-2.38019043-.9295238-4.49279996-2.2509714-6.20982853-4.1636571-1.99253333-2.2198857-3.15245714-4.8670476-3.91497143-7.7116953-.84540952-3.1622095-1.18186666-6.4-1.34643809-9.6560762-.03697778-.768-.07578413-1.5357968-.11641905-2.3033904v-5.3028572c.01980377-.1076485.03364076-.2163095.04144762-.3254857.06643809-2.6099809.23832381-5.2120381.62902857-7.7952.36571429-2.4234667.92464762-4.7951238 1.88464762-7.0625524 1.56769524-3.70102854 4.1447619-6.43352378 7.79398099-8.13226663 2.5728-1.19649524 5.3028571-1.82857143 8.0950857-2.22537143 2.4051809-.34011429 4.8249905-.50224762 7.2533333-.55832381.1712762-.00365714.3413333-.03230476.512-.04937143z" fill="url(#a)"/>
        <path d="m31.8666667 35.6313029-4.1352408 3.6765343c-.2120545.188532-.4821338.2921628-.7614259.2921628-.6461732 0-1.17-.5433409-1.17-1.2135858v-2.7551113h-5.46c-1.2923463 0-2.34-1.0866818-2.34-2.4271716v-11.8769597c0-1.3404899 1.0476537-2.4271716 2.34-2.4271716h18.72c1.2923463 0 2.34 1.0866817 2.34 2.4271716v11.8769597c0 1.3404898-1.0476537 2.4271716-2.34 2.4271716z" fill-rule="nonzero" stroke="#fff" stroke-width="2.7"/>
    </g>
</svg>