<svg height="32" viewBox="0 0 32 32" width="32" xmlns="http://www.w3.org/2000/svg"><g fill="none" fill-rule="evenodd"><path d="m0 0h32v32h-32z"/><g fill="#000" fill-rule="nonzero" transform="translate(5 6)"><path d="m18.6421725 2.45646838h-1.6038957l-.0340238-.09107599c-.5190728-1.38047577-1.861745-2.30782042-3.3419181-2.30782042h-4.32466981c-1.48045426 0-2.82312645.92734465-3.34191812 2.30782042l-.03402373.09107599h-1.60389575c-2.2787467 0-4.13233729 1.85328381-4.13233729 4.13130777v8.73092605c0 2.2780239 1.85387178 4.1310266 4.13233729 4.1310266h14.28434501c2.2787467 0 4.1323373-1.8532838 4.1323373-4.1310266v-8.73092605c.0002812-2.27802396-1.8535906-4.13130777-4.1323373-4.13130777zm2.4094991 12.86223382c0 1.3281914-1.0808863 2.4084537-2.4092179 2.4084537h-14.28462621c-1.3286128 0-2.40921788-1.0805434-2.40921788-2.4084537v-8.73092605c0-1.32819142 1.08088627-2.40873487 2.40921788-2.40873487h3.00983522l.14818602-.86381634c.15268502-.88967742.91864085-1.53536117 1.82181636-1.53536117h4.32466981c.9028943 0 1.6691313.64540265 1.8218164 1.53479897l.1473424.86409745h3.0106788c1.3286128 0 2.4092179 1.08054345 2.4092179 2.40873486v8.73120715z" stroke="#02000f" stroke-width=".7"/><path d="m11.2745098 5.92031706c-2.61120854 0-4.73529411 2.124335-4.73529411 4.73529414 0 2.6112085 2.15240641 4.7352941 4.73529411 4.7352941s4.7352941-2.124335 4.7352941-4.7352941c0-2.61120856-2.1240856-4.73529414-4.7352941-4.73529414zm.1434938 8.03565064c-1.74086899 0-3.15686278-1.4162449-3.15686278-3.1568628 0-1.74061785 1.41624485-3.1568627 3.15686278-3.1568627 1.7406179 0 3.1568627 1.41624485 3.1568627 3.1568627 0 1.7406179-1.4159938 3.1568628-3.1568627 3.1568628z" stroke="#000" stroke-width=".4"/></g></g></svg>