<svg height="32" viewBox="0 0 32 32" width="32" xmlns="http://www.w3.org/2000/svg"><g fill="none" fill-rule="evenodd"><path d="m0 0h32v32h-32z"/><g fill-rule="nonzero" stroke="#000" stroke-width="2.34" transform="translate(5 8)"><path d="m1.8 6.3h4.5v9.9h-4.5c-.99411255 0-1.8-.8058875-1.8-1.8v-6.3c0-.99411255.80588745-1.8 1.8-1.8z"/><path d="m17.1 6.3h4.5v9.9h-4.5c-.9941125 0-1.8-.8058875-1.8-1.8v-6.3c0-.99411255.8058875-1.8 1.8-1.8z" transform="matrix(-1 0 0 1 36.9 0)"/><path d="m4.5 5.4c0-2.98233765 2.05134987-5.4 4.58181818-5.4h3.43636362c2.5304683 0 4.5818182 2.41766235 4.5818182 5.4"/></g></g></svg>