<svg height="32" viewBox="0 0 32 32" width="32" xmlns="http://www.w3.org/2000/svg"><g fill="none" fill-rule="evenodd"><path d="m0 0h32v32h-32z"/><g fill-rule="nonzero" transform="translate(4 5)"><rect height="22.666667" rx="2.64" stroke="#020018" stroke-width="2.31" width="17.333333"/><path d="m10.1645066 9.6623466 2.4963934 4.9927867c.2295222.4590444.0434577 1.0172378-.4155866 1.24676-.1290356.0645178-.2713205.0981067-.4155867.0981067h-4.99278674c-.51322717 0-.92928-.4160528-.92928-.92928 0-.1442662.03358891-.2865511.0981067-.4155867l2.49639337-4.9927867c.22952217-.45904434.78771562-.64510882 1.24675995-.41558665.17984115.08992057.32566612.23574551.41558662.41558665z" fill="#000" transform="matrix(0 1 -1 0 21.333333 2.666667)"/><path d="m17.3333333 4 3.8614899 1.51311116c1.3575317.53194397 2.0268027 2.0636666 1.4948587 3.42119824-.0423062.10796645-.09168.21302822-.1478005.31450267l-5.2085481 9.41785463" stroke="#000" stroke-width="2.2"/></g></g></svg>