<?xml version="1.0" encoding="UTF-8"?>
<svg width="64px" height="64px" viewBox="0 0 64 64" version="1.1" xmlns="http://www.w3.org/2000/svg" xmlns:xlink="http://www.w3.org/1999/xlink">
    <title>Learn Mod</title>
    <defs>
        <linearGradient x1="50%" y1="0%" x2="50%" y2="99.897065%" id="linearGradient-1">
            <stop stop-color="#87F29A" offset="0%"></stop>
            <stop stop-color="#5ED28F" offset="100%"></stop>
        </linearGradient>
    </defs>
    <g id="Page-1" stroke="none" stroke-width="1" fill="none" fill-rule="evenodd">
        <g id="Individual-Modules-" transform="translate(-171.000000, -501.000000)">
            <g id="Learn-Mod" transform="translate(171.000000, 501.000000)">
                <path d="M29.1216931,0 L34.8783069,0 C35.0105228,0.0237361292 35.1439012,0.0404649475 35.2778836,0.0501164021 C37.8499465,0.0979810412 40.4176402,0.282679562 42.9700741,0.603428571 C45.7820106,0.968465608 48.5465397,1.55089947 51.2,2.58099471 C55.6759365,4.31746032 58.9795556,7.30277249 60.9584762,11.7164021 C62.3583492,14.837164 63.0843598,18.1333333 63.4412698,21.5073862 C63.6945608,23.9055238 63.7866667,26.3212698 63.9525926,28.7288889 C63.9600423,28.8386032 63.983746,28.946963 64,29.056 L64,34.9480635 C63.9776614,35.0674629 63.9616111,35.1879535 63.9519153,35.309037 C63.8841905,38.2090159 63.6864339,41.0995132 63.2523175,43.9703704 C62.8540952,46.6068995 62.2493122,49.1892487 61.2205714,51.6618836 C59.5640212,55.6488466 56.8719577,58.6775026 52.983873,60.6137566 C50.5200423,61.8416085 47.8997672,62.5649101 45.2070265,63.0518519 C42.1485714,63.602455 39.0576085,63.8381376 35.954455,63.9322751 C35.5955132,63.9437884 35.2372487,63.9762963 34.8783069,64 L29.1216931,64 C28.9659259,63.9817143 28.810836,63.9512381 28.6550688,63.9471746 C25.7666032,63.8794497 22.8882963,63.6877884 20.0296296,63.2529947 C17.5854392,62.8811852 15.1866243,62.3319365 12.8751746,61.429164 C10.2305185,60.3963598 7.8831746,58.9280847 5.97536508,56.8028783 C3.76143915,54.3363386 2.47263492,51.3950476 1.62539683,48.234328 C0.68605291,44.7207619 0.31221164,41.1232169 0.129354497,37.5053545 C0.0882680776,36.6520212 0.0451499118,35.7989136 0,34.9460317 L0,29.0539683 C0.0220041884,28.9343588 0.0373786203,28.8136243 0.0460529101,28.6923175 C0.119873016,25.7923386 0.310857143,22.901164 0.744973545,20.0309841 C1.15132275,17.3382434 1.77235979,14.7030688 2.83902646,12.1837037 C4.58091005,8.07144974 7.44431746,5.03534392 11.4990053,3.14785185 C14.357672,1.8184127 17.3910688,1.11610582 20.493545,0.675216931 C23.1659683,0.297312169 25.8546455,0.117164021 28.5528042,0.0548571429 C28.7431111,0.0507936508 28.9320635,0.018962963 29.1216931,0 Z" id="Path" fill="url(#linearGradient-1)"></path>
                <g id="Group-15" transform="translate(17.000000, 20.000000)" stroke="#FFFFFF" stroke-linecap="round" stroke-width="3">
                    <g id="Group-13" transform="translate(0.087365, 0.000000)">
                        <g id="Group-3">
                            <path d="M14.3217724,25.4081908 C12.2823153,21.8236946 8.0426224,20.0314465 1.6026936,20.0314465" id="Path-19"></path>
                            <path d="M14.3217724,5.3767443 C12.2823153,1.7922481 8.0426224,0 1.6026936,0" id="Path-19-Copy"></path>
                            <line x1="0.306397306" y1="2.27373675e-13" x2="0.306397306" y2="20.0314465" id="Path-20"></line>
                        </g>
                        <g id="Group-3" transform="translate(21.442761, 13.000000) scale(-1, 1) translate(-21.442761, -13.000000) translate(13.942761, 0.000000)">
                            <path d="M14.3217724,25.4081908 C12.2823153,21.8236946 8.0426224,20.0314465 1.6026936,20.0314465" id="Path-19"></path>
                            <line x1="14.3758707" y1="5.72327044" x2="14.3758707" y2="25.1823899" id="Path-20-Copy"></line>
                            <path d="M14.3217724,5.3767443 C12.2823153,1.7922481 8.0426224,0 1.6026936,0" id="Path-19-Copy"></path>
                            <line x1="0.306397306" y1="2.27373675e-13" x2="0.306397306" y2="20.0314465" id="Path-20"></line>
                        </g>
                    </g>
                </g>
            </g>
        </g>
    </g>
</svg>