<svg height="32" viewBox="0 0 32 32" width="32" xmlns="http://www.w3.org/2000/svg"><g fill="none" fill-rule="evenodd"><path d="m0 0h32v32h-32z"/><g stroke="#000" stroke-width="2.34" transform="translate(6 8)"><path d="m11.0964706 0c1.5905801 0 2.88 1.28941992 2.88 2.88l-.0004706.817 3.4378444-.89659533c.769491-.20092264 1.5561667.25999305 1.7570893 1.02948402.0310149.11878057.0467134.24103964.0467134.36380262v6.75379389c0 .79529-.64471 1.44-1.44 1.44-.122763 0-.2450221-.0156985-.3638027-.0467134l-3.4378444-.8977718.0004706.8181765c0 1.5905801-1.2894199 2.88-2.88 2.88h-8.2164706c-1.59058008 0-2.88-1.2894199-2.88-2.88v-9.3811765c0-1.59058008 1.28941992-2.88 2.88-2.88z" fill-rule="nonzero"/><path d="m13.976471 2.329412v8.797614"/></g></g></svg>